<svg width="12" height="12" viewBox="0 0 12 12" fill="none" xmlns="http://www.w3.org/2000/svg">
<g clip-path="url(#clip0)">
<path d="M11.4243 8.07574C11.6586 8.31005 11.6586 8.68995 11.4243 8.92426C11.1899 9.15858 10.8101 9.15858 10.5757 8.92426L11.4243 8.07574ZM6 3.5L5.57574 3.07574C5.81005 2.84142 6.18995 2.84142 6.42426 3.07574L6 3.5ZM1.42426 8.92426C1.18995 9.15858 0.81005 9.15858 0.575736 8.92426C0.341421 8.68995 0.341421 8.31005 0.575736 8.07574L1.42426 8.92426ZM10.5757 8.92426L5.57574 3.92426L6.42426 3.07574L11.4243 8.07574L10.5757 8.92426ZM6.42426 3.92426L1.42426 8.92426L0.575736 8.07574L5.57574 3.07574L6.42426 3.92426Z" fill="#AB844A"/>
</g>
<defs>
<clipPath id="clip0">
<rect width="12" height="12" fill="white" transform="translate(12) rotate(90)"/>
</clipPath>
</defs>
</svg>
