<svg width="12" height="12" viewBox="0 0 12 12" fill="none" xmlns="http://www.w3.org/2000/svg">
<g clip-path="url(#clip0)">
<path d="M11.4243 3.92426C11.6586 3.68995 11.6586 3.31005 11.4243 3.07574C11.1899 2.84142 10.8101 2.84142 10.5757 3.07574L11.4243 3.92426ZM6 8.5L5.57574 8.92426C5.81005 9.15858 6.18995 9.15858 6.42426 8.92426L6 8.5ZM1.42426 3.07574C1.18995 2.84142 0.81005 2.84142 0.575736 3.07574C0.341421 3.31005 0.341421 3.68995 0.575736 3.92426L1.42426 3.07574ZM10.5757 3.07574L5.57574 8.07574L6.42426 8.92426L11.4243 3.92426L10.5757 3.07574ZM6.42426 8.07574L1.42426 3.07574L0.575736 3.92426L5.57574 8.92426L6.42426 8.07574Z" fill="#7C7C7C"/>
</g>
<defs>
<clipPath id="clip0">
<rect width="12" height="12" fill="white" transform="translate(12) rotate(90)"/>
</clipPath>
</defs>
</svg>
