<svg width="12" height="12" viewBox="0 0 12 12" fill="none" xmlns="http://www.w3.org/2000/svg">
<g clip-path="url(#clip0)">
<path d="M11.4241 8.07583C11.6585 8.31014 11.6585 8.69004 11.4241 8.92436C11.1898 9.15867 10.8099 9.15867 10.5756 8.92436L11.4241 8.07583ZM5.99988 3.50009L5.57561 3.07583C5.80993 2.84151 6.18983 2.84151 6.42414 3.07583L5.99988 3.50009ZM1.42414 8.92436C1.18983 9.15867 0.809928 9.15867 0.575614 8.92436C0.341299 8.69004 0.341299 8.31014 0.575614 8.07583L1.42414 8.92436ZM10.5756 8.92436L5.57561 3.92436L6.42414 3.07583L11.4241 8.07583L10.5756 8.92436ZM6.42414 3.92436L1.42414 8.92436L0.575614 8.07583L5.57561 3.07583L6.42414 3.92436Z" fill="#2B2A2A"/>
</g>
<defs>
<clipPath id="clip0">
<rect width="12" height="12" fill="white" transform="translate(12) rotate(90)"/>
</clipPath>
</defs>
</svg>
