<svg width="12" height="12" viewBox="0 0 12 12" fill="none" xmlns="http://www.w3.org/2000/svg">
<g clip-path="url(#clip0)">
<path d="M11.4241 3.92436C11.6585 3.69004 11.6585 3.31014 11.4241 3.07583C11.1898 2.84151 10.8099 2.84151 10.5756 3.07583L11.4241 3.92436ZM5.99988 8.50009L5.57561 8.92436C5.80993 9.15867 6.18983 9.15867 6.42414 8.92436L5.99988 8.50009ZM1.42414 3.07583C1.18983 2.84151 0.809928 2.84151 0.575614 3.07583C0.341299 3.31014 0.341299 3.69004 0.575614 3.92436L1.42414 3.07583ZM10.5756 3.07583L5.57561 8.07583L6.42414 8.92436L11.4241 3.92436L10.5756 3.07583ZM6.42414 8.07583L1.42414 3.07583L0.575614 3.92436L5.57561 8.92436L6.42414 8.07583Z" fill="#2B2A2A"/>
</g>
<defs>
<clipPath id="clip0">
<rect width="12" height="12" fill="white" transform="translate(12) rotate(90)"/>
</clipPath>
</defs>
</svg>
