<svg width="16" height="16" viewBox="0 0 16 16" fill="none" xmlns="http://www.w3.org/2000/svg">
<path d="M14.6236 13.3557L13.8329 5.67843C13.8003 5.36009 13.5321 5.11812 13.2121 5.11812H2.80896C2.4898 5.11812 2.2218 5.35927 2.1883 5.67677L1.37643 13.3578C1.30943 14.0282 1.5329 14.7019 1.98936 15.2064C2.44586 15.7106 3.09336 16 3.76602 16H12.2552C12.9247 16 13.5662 15.7164 14.0143 15.2214C14.4688 14.7206 14.6908 14.0415 14.6236 13.3557ZM13.0899 14.3831C12.8744 14.6207 12.5779 14.7516 12.2552 14.7516H3.76624C3.44561 14.7516 3.1354 14.612 2.91505 14.3686C2.69471 14.1251 2.58674 13.802 2.61836 13.4856L3.37071 6.36671H12.6488L13.3816 13.481C13.4149 13.8187 13.3111 14.1391 13.0899 14.3831Z" fill="#AB844A"/>
<path d="M8.11446 0C6.14121 0 4.53577 1.60541 4.53577 3.57869V5.74253H5.78414V3.57869C5.78414 2.29369 6.82946 1.24838 8.11446 1.24838C9.39946 1.24838 10.445 2.29369 10.445 3.57869V5.74253H11.6931V3.57869C11.6932 1.60541 10.0877 0 8.11446 0Z" fill="#AB844A"/>
</svg>
