<svg width="108" height="108" viewBox="0 0 108 108" fill="none" xmlns="http://www.w3.org/2000/svg">
<g clip-path="url(#clip0)">
<path d="M98.7118 90.1511L93.3751 38.3295C93.1546 36.1807 91.3444 34.5474 89.1844 34.5474H18.9633C16.809 34.5474 15 36.1752 14.7738 38.3183L9.29369 90.1653C8.84144 94.6903 10.3499 99.2379 13.431 102.643C16.5124 106.047 20.883 108 25.4234 108H82.7252C87.2446 108 91.5745 106.086 94.5996 102.745C97.667 99.3643 99.1655 94.7802 98.7118 90.1511ZM88.3598 97.0863C86.9048 98.6901 84.9036 99.5735 82.7252 99.5735H25.4249C23.2607 99.5735 21.1667 98.631 19.6794 96.9881C18.1921 95.3449 17.4633 93.1638 17.6768 91.0276L22.7551 42.9754H85.3824L90.3287 90.9968C90.5536 93.2762 89.8526 95.4389 88.3598 97.0863Z" fill="#7C7C7C"/>
<path d="M54.7695 0C41.45 0 30.6133 10.8365 30.6133 24.1561V38.7621H39.0398V24.1561C39.0398 15.4824 46.0957 8.42653 54.7695 8.42653C63.4432 8.42653 70.5004 15.4824 70.5004 24.1561V38.7621H78.9254V24.1561C78.9257 10.8365 68.0891 0 54.7695 0Z" fill="#7C7C7C"/>
</g>
<defs>
<clipPath id="clip0">
<rect width="108" height="108" fill="white"/>
</clipPath>
</defs>
</svg>
