<svg width="416" height="97" viewBox="0 0 416 97" fill="none" xmlns="http://www.w3.org/2000/svg">
<rect width="416" height="97" fill="#AB844A"/>
<path d="M85.9998 65.1875V70.5H54V65.75L78.0307 31.3125H54V26H85.3203V30.6875L61.2278 65.1875H85.9998Z" fill="white"/>
<path d="M141.819 71C135.971 71 131.523 69.4583 128.476 66.375C125.469 63.2917 123.966 58.7708 123.966 52.8125V26H130.206V53.25C130.206 57.375 131.173 60.5 133.109 62.625C135.086 64.7083 137.989 65.75 141.819 65.75C145.608 65.75 148.471 64.6875 150.406 62.5625C152.383 60.4375 153.371 57.3333 153.371 53.25V26H159.673V52.8125C159.673 58.7708 158.149 63.2917 155.101 66.375C152.095 69.4583 147.668 71 141.819 71Z" fill="white"/>
<path d="M200.528 26H206.891V65.125H228.265V70.5H200.528V26Z" fill="white"/>
<path d="M274.951 52.625V70.5H268.527V52.5L251.044 26H258.334L271.801 47L285.206 26H292.496L274.951 52.625Z" fill="white"/>
<path d="M350.819 59.5H328.579L323.884 70.5H317.398L336.981 26H342.355L362 70.5H355.514L350.819 59.5ZM348.656 54.375L339.699 33.1875L330.742 54.375H348.656Z" fill="white"/>
</svg>
