<svg width="32" height="32" viewBox="0 0 32 32" fill="none" xmlns="http://www.w3.org/2000/svg">
<rect width="32" height="32" rx="16" fill="white"/>
<path d="M24.2307 8.5849C23.0741 7.4283 21.5266 6.79138 19.8729 6.79138C18.4491 6.79138 17.1043 7.26357 16.0196 8.13287C14.9194 7.26357 13.5729 6.79138 12.163 6.79138C10.5016 6.79138 8.95008 7.42857 7.79352 8.5849C6.63691 9.74126 6 11.289 6 12.9425C6 14.5962 6.63691 16.1437 7.79352 17.3L15.4914 24.9979C15.6316 25.1384 15.8158 25.2086 16 25.2086C16.1837 25.2086 16.3674 25.1386 16.5079 24.9988L24.212 17.3182C25.3652 16.1391 26 14.5895 26 12.9545C26 11.3044 25.3736 9.7547 24.2307 8.5849ZM23.1897 16.3055L16.0007 23.4724L8.81078 16.2828C7.92613 15.3979 7.43883 14.2115 7.43883 12.9425C7.43883 11.6734 7.92613 10.4871 8.81078 9.6022C9.69566 8.71755 10.8861 8.23025 12.163 8.23025C13.4196 8.23025 14.6125 8.7197 15.5211 9.60794C15.8026 9.88349 16.2542 9.88107 16.5326 9.6022C17.4175 8.71755 18.6036 8.23025 19.8729 8.23025C21.1422 8.23025 22.3283 8.71755 23.2072 9.59642C24.0803 10.4897 24.5611 11.6823 24.5611 12.9545C24.5611 14.2113 24.072 15.4038 23.1897 16.3055Z" fill="#AB844A"/>
</svg>
