<svg width="30" height="30" viewBox="0 0 30 30" fill="none" xmlns="http://www.w3.org/2000/svg">
<path fill-rule="evenodd" clip-rule="evenodd" d="M20.1449 6.87631H9.85532C8.21315 6.87631 6.87683 8.21255 6.87683 9.8548V20.1443C6.87683 21.7868 8.21315 23.1231 9.85532 23.1231H20.1449C21.7873 23.1231 23.1237 21.7868 23.1237 20.1443V9.8548C23.1237 8.21263 21.7873 6.87631 20.1449 6.87631ZM14.9999 20.3479C12.0511 20.3479 9.65167 17.9485 9.65167 14.9994C9.65167 12.0506 12.0511 9.65114 14.9999 9.65114C17.9491 9.65114 20.3485 12.0506 20.3485 14.9994C20.3485 17.9485 17.9491 20.3479 14.9999 20.3479ZM20.5206 10.7571C19.8224 10.7571 19.2547 10.1894 19.2547 9.49167C19.2547 8.79384 19.8224 8.22615 20.5206 8.22615C21.2183 8.22615 21.786 8.79384 21.786 9.49167C21.786 10.1895 21.2183 10.7571 20.5206 10.7571Z" fill="#AB844A"/>
<path fill-rule="evenodd" clip-rule="evenodd" d="M15 11.9117C13.2976 11.9117 11.9114 13.2973 11.9114 14.9996C11.9114 16.7026 13.2976 18.0885 15 18.0885C16.703 18.0885 18.0882 16.7026 18.0882 14.9996C18.0882 13.2973 16.703 11.9117 15 11.9117Z" fill="#AB844A"/>
</svg>
