<svg width="112" height="18" viewBox="0 0 112 18" fill="none" xmlns="http://www.w3.org/2000/svg">
<g clip-path="url(#clip0)">
<path d="M11.6363 15.1303V17.0459H0V15.3331L8.73845 2.91559H0V1H11.3892V2.69023L2.62827 15.1303H11.6363Z" fill="#2B2B2B"/>
<path d="M31.9343 17.2262C29.8078 17.2262 28.1904 16.6703 27.0821 15.5585C25.9889 14.4467 25.4423 12.8166 25.4423 10.6681V1H27.7111V10.8259C27.7111 12.3133 28.0631 13.4401 28.7669 14.2063C29.4858 14.9575 30.5416 15.3331 31.9343 15.3331C33.3121 15.3331 34.3529 14.95 35.0568 14.1838C35.7757 13.4175 36.1351 12.2982 36.1351 10.8259V1H38.4264V10.6681C38.4264 12.8166 37.8723 14.4467 36.7641 15.5585C35.6708 16.6703 34.0609 17.2262 31.9343 17.2262Z" fill="#2B2B2B"/>
<path d="M53.2829 1H55.5967V15.1078H63.3692V17.0459H53.2829V1Z" fill="#2B2B2B"/>
<path d="M80.3459 10.6005V17.0459H78.0097V10.5554L71.6524 1H74.3031L79.2003 8.57222L84.0749 1H86.7257L80.3459 10.6005Z" fill="#2B2B2B"/>
<path d="M107.934 13.0795H99.847L98.1398 17.0459H95.7811L102.902 1H104.856L112 17.0459H109.641L107.934 13.0795ZM107.148 11.2315L103.891 3.59168L100.633 11.2315H107.148Z" fill="#2B2B2B"/>
</g>
<defs>
<clipPath id="clip0">
<rect width="112" height="18" fill="white"/>
</clipPath>
</defs>
</svg>
