<svg width="703" height="157" viewBox="0 0 703 157" fill="none" xmlns="http://www.w3.org/2000/svg">
<rect width="703" height="157" fill="white"/>
<path d="M141.779 105.442V114.178H89V106.367L128.635 49.7361H89V41H140.658V48.7083L100.921 105.442H141.779Z" fill="#2B2A2A"/>
<path d="M233.845 115C224.199 115 216.863 112.465 211.837 107.394C206.878 102.324 204.399 94.8898 204.399 85.0917V41H214.69V85.8111C214.69 92.5944 216.286 97.7333 219.479 101.228C222.739 104.654 227.528 106.367 233.845 106.367C240.094 106.367 244.815 104.619 248.008 101.125C251.268 97.6306 252.898 92.5259 252.898 85.8111V41H263.291V85.0917C263.291 94.8898 260.778 102.324 255.751 107.394C250.793 112.465 243.491 115 233.845 115Z" fill="#2B2A2A"/>
<path d="M330.676 41H341.171V105.339H376.425V114.178H330.676V41Z" fill="#2B2A2A"/>
<path d="M453.426 84.7833V114.178H442.83V84.5778L413.995 41H426.018L448.23 75.5333L470.34 41H482.363L453.426 84.7833Z" fill="#2B2A2A"/>
<path d="M578.558 96.0889H541.878L534.134 114.178H523.436L555.735 41H564.599L597 114.178H586.302L578.558 96.0889ZM574.992 87.6611L560.218 52.8194L545.444 87.6611H574.992Z" fill="#2B2A2A"/>
</svg>
