<svg width="16" height="16" viewBox="0 0 16 16" fill="none" xmlns="http://www.w3.org/2000/svg">
<path d="M8.00004 9.01215C3.19264 9.01215 0.545044 11.2864 0.545044 15.416C0.545044 15.7386 0.80645 16 1.12898 16H14.8711C15.1936 16 15.455 15.7386 15.455 15.416C15.455 11.2866 12.8074 9.01215 8.00004 9.01215ZM1.73417 14.8321C1.96386 11.7444 4.06895 10.1801 8.00004 10.1801C11.9311 10.1801 14.0363 11.7444 14.2661 14.8321H1.73417V14.8321Z" fill="#AB844A"/>
<path d="M8.00006 0C5.79177 0 4.12659 1.69869 4.12659 3.95116C4.12659 6.26959 5.86421 8.15553 8.00006 8.15553C10.1359 8.15553 11.8735 6.26959 11.8735 3.95134C11.8735 1.69869 10.2083 0 8.00006 0ZM8.00006 6.98784C6.50809 6.98784 5.29446 5.62569 5.29446 3.95134C5.29446 2.3385 6.43237 1.16788 8.00006 1.16788C9.54265 1.16788 10.7057 2.36437 10.7057 3.95134C10.7057 5.62569 9.49203 6.98784 8.00006 6.98784Z" fill="#AB844A"/>
</svg>
