<svg width="30" height="30" viewBox="0 0 30 30" fill="none" xmlns="http://www.w3.org/2000/svg">
<path fill-rule="evenodd" clip-rule="evenodd" d="M22.49 16.5974C23.1787 17.2692 23.907 17.9018 24.5251 18.6446C24.7982 18.9728 25.0565 19.3114 25.2534 19.6917C25.5329 20.2365 25.2796 20.8335 24.7929 20.8664L21.7681 20.8651C20.9874 20.9292 20.3652 20.6145 19.8405 20.0803C19.4233 19.6551 19.0333 19.1999 18.6305 18.7601C18.4666 18.5791 18.2933 18.4098 18.0873 18.2747C17.6741 18.007 17.3157 18.0883 17.0795 18.5186C16.8393 18.957 16.7829 19.4438 16.7607 19.9319C16.7278 20.6445 16.5128 20.8309 15.7976 20.8652C14.2674 20.936 12.8162 20.7036 11.4684 19.9332C10.2782 19.2537 9.35709 18.2929 8.5552 17.2065C6.99243 15.0884 5.79553 12.7631 4.72087 10.3709C4.47797 9.83175 4.6554 9.54283 5.24828 9.53241C6.23663 9.51289 7.22459 9.51527 8.21155 9.53109C8.61303 9.53782 8.8794 9.76727 9.03296 10.1465C9.56709 11.459 10.2204 12.7081 11.0405 13.867C11.2599 14.1754 11.4829 14.4824 11.799 14.7001C12.1494 14.9416 12.4172 14.8627 12.5824 14.4703C12.6876 14.2211 12.7336 13.9561 12.7557 13.6896C12.8343 12.7776 12.8438 11.8645 12.7084 10.9551C12.6244 10.3867 12.303 10.0192 11.7362 9.91173C11.4473 9.85661 11.4906 9.75045 11.6297 9.58483C11.8739 9.30032 12.1037 9.12289 12.5589 9.12289H15.9774C16.5165 9.22806 16.6375 9.47089 16.7107 10.0128L16.7134 13.8119C16.707 14.0218 16.8186 14.6436 17.1951 14.7814C17.4968 14.8811 17.6977 14.6382 17.8787 14.4467C18.6974 13.578 19.2816 12.5507 19.8036 11.4878C20.0347 11.0205 20.2343 10.5351 20.4285 10.0493C20.5716 9.68986 20.7946 9.51283 21.2001 9.51922L24.4913 9.52325C24.5883 9.52325 24.6881 9.52325 24.7839 9.539C25.3375 9.63474 25.4897 9.87362 25.3177 10.4155C25.0489 11.2644 24.5225 11.9732 24.0096 12.683C23.4596 13.4429 22.8744 14.1762 22.3286 14.9401C21.83 15.6396 21.8693 15.9913 22.49 16.5974Z" fill="#AB844A"/>
</svg>
